<svg width="32" height="32" viewBox="0 0 256 256" 
        fill="none" xmlns="http://www.w3.org/2000/svg" xmlns:xlink="http://www.w3.org/1999/xlink" version="1.1">
        <defs>
            
        </defs>
        
            <g transform="translate(0, 0)">
                <svg width="256" height="256" title="C++" viewBox="0 0 256 256" fill="none" xmlns="http://www.w3.org/2000/svg">
<rect width="256" height="256" rx="40" fill="#00599C"/>
<path d="M111.621 206.241C68.2691 206.241 33 170.972 33 127.621C33 84.2691 68.2691 49 111.621 49C139.594 49 165.684 64.0535 179.706 88.2856L145.68 107.975C138.663 95.8455 125.611 88.3103 111.621 88.3103C89.9445 88.3103 72.3103 105.945 72.3103 127.621C72.3103 149.296 89.9445 166.931 111.621 166.931C125.612 166.931 138.664 159.396 145.682 147.264L179.707 166.953C165.685 191.187 139.596 206.241 111.621 206.241Z" fill="white"/>
<path d="M190.241 123.253H181.505V114.517H172.771V123.253H164.034V131.988H172.771V140.724H181.505V131.988H190.241V123.253Z" fill="white"/>
<path d="M223 123.253H214.264V114.517H205.529V123.253H196.793V131.988H205.529V140.724H214.264V131.988H223V123.253Z" fill="white"/>
</svg>
            </g>
    </svg>