<svg width="32" height="32" viewBox="0 0 256 256" 
        fill="none" xmlns="http://www.w3.org/2000/svg" xmlns:xlink="http://www.w3.org/1999/xlink" version="1.1">
        <defs>
            
        </defs>
        
            <g transform="translate(0, 0)">
                <svg width="256" height="256" title=".NET" viewBox="0 0 256 256" fill="none" xmlns="http://www.w3.org/2000/svg">
<rect width="256" height="256" rx="40" fill="#512BD4"/>
<path d="M208 106.273H191.547V156.707H182.047V106.273H165.633V98.0067H208V106.273ZM162.32 156.707H130.18V98.0067H161.047V106.273H139.68V122.9H159.367V131.127H139.68V148.487H162.32V156.707ZM117.6 156.707H107.213L79.8667 113.56C79.1826 112.486 78.6065 111.347 78.1467 110.16H77.9067C78.12 111.42 78.2267 114.107 78.2267 118.227V156.707H69.0467V98.0067H80.1067L106.54 140.14C107.653 141.88 108.373 143.087 108.693 143.74H108.853C108.587 142.187 108.453 139.547 108.453 135.84V98H117.6V156.707ZM59.58 152.087C59.58 152.813 59.4301 153.532 59.1389 154.203C58.8477 154.874 58.4208 155.484 57.8828 155.997C57.3447 156.51 56.706 156.917 56.0032 157.194C55.3003 157.472 54.5471 157.614 53.7867 157.613C53.0262 157.613 52.2731 157.47 51.5706 157.192C50.8681 156.914 50.2298 156.506 49.6924 155.992C49.155 155.478 48.7289 154.868 48.4385 154.197C48.1481 153.526 47.9991 152.806 48 152.08C48.0019 150.615 48.6123 149.211 49.6973 148.176C50.7824 147.141 52.2532 146.56 53.7867 146.56C54.5471 146.559 55.3003 146.701 56.0032 146.979C56.706 147.256 57.3447 147.663 57.8828 148.176C58.4208 148.69 58.8477 149.299 59.1389 149.97C59.4301 150.641 59.58 151.36 59.58 152.087Z" fill="white"/>
</svg>
            </g>
    </svg>