<svg width="32" height="32" viewBox="0 0 256 256" 
        fill="none" xmlns="http://www.w3.org/2000/svg" xmlns:xlink="http://www.w3.org/1999/xlink" version="1.1">
        <defs>
            
        </defs>
        
            <g transform="translate(0, 0)">
                <svg width="256" height="256" title="Material UI" viewBox="0 0 256 256" fill="none" xmlns="http://www.w3.org/2000/svg">
<rect width="256" height="256" rx="40" fill="#007FFF"/>
<path d="M181.646 152.489C182.299 152.113 182.843 151.572 183.221 150.919C183.601 150.266 183.801 149.524 183.803 148.769L183.88 123.853C183.882 123.097 184.082 122.355 184.461 121.702C184.842 121.049 185.388 120.508 186.044 120.133L199.542 112.363C200.196 111.989 200.938 111.793 201.692 111.795C202.448 111.797 203.189 111.997 203.843 112.376C204.497 112.752 205.04 113.293 205.419 113.945C205.796 114.599 205.994 115.341 205.994 116.096V161.395C205.993 162.152 205.793 162.896 205.413 163.552C205.033 164.207 204.487 164.751 203.83 165.128L152.854 194.41C152.204 194.783 151.467 194.979 150.717 194.979C149.967 194.979 149.23 194.783 148.579 194.41L108.576 171.534C107.917 171.158 107.369 170.615 106.987 169.959C106.606 169.301 106.406 168.555 106.406 167.795V144.952C106.406 144.926 106.432 144.913 106.458 144.926C106.484 144.939 106.509 144.926 106.509 144.894V144.868C106.509 144.849 106.522 144.836 106.535 144.823L139.486 125.9C139.511 125.88 139.499 125.835 139.466 125.835C139.461 125.835 139.456 125.834 139.452 125.832C139.447 125.83 139.443 125.826 139.44 125.822C139.438 125.819 139.436 125.815 139.434 125.81C139.433 125.806 139.433 125.801 139.434 125.796L139.499 103.405C139.502 102.647 139.304 101.901 138.927 101.243C138.549 100.586 138.004 100.039 137.348 99.6596C136.693 99.2815 135.95 99.0825 135.194 99.0825C134.438 99.0825 133.695 99.2815 133.04 99.6596L108.557 113.778C107.903 114.153 107.163 114.351 106.409 114.351C105.656 114.351 104.915 114.153 104.262 113.778L79.6944 99.6338C79.0401 99.2583 78.2986 99.0612 77.5443 99.0622C76.7899 99.0633 76.049 99.2624 75.3957 99.6397C74.7425 100.017 74.1997 100.559 73.8219 101.212C73.444 101.865 73.2442 102.606 73.2425 103.36V143.835C73.2428 144.589 73.0448 145.33 72.6685 145.984C72.2923 146.638 71.7508 147.182 71.0983 147.561C70.4468 147.939 69.7075 148.14 68.9542 148.142C68.1999 148.144 67.4583 147.948 66.8036 147.574L53.17 139.779C52.5109 139.403 51.9628 138.859 51.5813 138.203C51.199 137.544 50.9984 136.795 51 136.033L51.1227 65.2948C51.1251 64.5414 51.325 63.8017 51.7025 63.1497C52.0801 62.4976 52.622 61.956 53.2743 61.5789C53.9266 61.2018 54.6664 61.0024 55.4198 61.0005C56.1733 60.9987 56.914 61.1945 57.5681 61.5684L104.262 88.3898C104.915 88.7655 105.656 88.9632 106.409 88.9632C107.163 88.9632 107.903 88.7655 108.557 88.3898L155.238 61.5684C155.892 61.1936 156.634 60.9976 157.388 61C158.144 61.0015 158.885 61.202 159.539 61.5813C160.193 61.9592 160.737 62.5027 161.115 63.1571C161.489 63.8119 161.685 64.5535 161.683 65.3077V136.065C161.683 136.821 161.489 137.564 161.108 138.222C160.728 138.878 160.183 139.421 159.526 139.798L135.081 153.877C134.423 154.256 133.878 154.802 133.499 155.46C133.121 156.115 132.922 156.86 132.924 157.617C132.925 158.374 133.125 159.118 133.505 159.774C133.888 160.431 134.439 160.975 135.1 161.35L148.585 169.029C149.235 169.397 149.97 169.59 150.717 169.59C151.469 169.589 152.209 169.391 152.861 169.016L181.646 152.482V152.489ZM184.474 89.0163C184.474 89.7761 184.674 90.5226 185.056 91.1798C185.44 91.8377 185.993 92.3816 186.657 92.7556C187.319 93.1295 188.068 93.3217 188.828 93.3126C189.588 93.3035 190.332 93.0935 190.984 92.704L203.908 84.954C204.545 84.5718 205.072 84.0311 205.438 83.3846C205.806 82.7368 206 82.0047 206 81.2598V65.4756C205.998 64.7152 205.796 63.9688 205.412 63.3121C205.028 62.6554 204.476 62.1122 203.814 61.7379C203.151 61.3635 202.402 61.1713 201.641 61.1809C200.881 61.1894 200.136 61.3988 199.484 61.7879L186.567 69.5379C185.927 69.9192 185.398 70.46 185.03 71.1073C184.664 71.7558 184.473 72.4878 184.474 73.2321V89.0163Z" fill="white"/>
</svg>
            </g>
    </svg>