<svg width="32" height="32" viewBox="0 0 256 256" 
        fill="none" xmlns="http://www.w3.org/2000/svg" xmlns:xlink="http://www.w3.org/1999/xlink" version="1.1">
        <defs>
            
        </defs>
        
            <g transform="translate(0, 0)">
                <svg width="256" height="256" title="MySQL" viewBox="0 0 256 256" fill="none" xmlns="http://www.w3.org/2000/svg" id="mysql">
<style>
#mysql {
    rect {fill: #15191C}
    path {fill: #F4F2ED}

    @media (prefers-color-scheme: light) {
        rect {fill: #F4F2ED}
        path {fill: #15191C}
    }
}
</style>
<rect width="256" height="256" rx="40" fill="#15191C"/>
<path d="M84.3536 75.8609C82.4814 75.8609 81.2115 76.0888 79.8929 76.3981V76.6097H80.1208C80.9999 78.3028 82.4976 79.5401 83.6047 81.0542C84.4838 82.7961 85.2327 84.5381 86.1118 86.2638L86.3397 86.0196C87.8701 84.9451 88.6189 83.2194 88.6189 80.5983C87.9677 79.8332 87.87 79.068 87.3165 78.3191C86.6653 77.2284 85.2652 76.6911 84.3861 75.8283L84.3536 75.8609ZM195.367 170.448C186.657 170.22 179.901 171.099 174.252 173.508C172.624 174.159 170.019 174.159 169.791 176.227C170.686 177.09 170.817 178.506 171.582 179.711C172.884 181.892 175.131 184.806 177.215 186.337C179.494 188.128 181.773 189.853 184.166 191.384C188.399 193.988 193.202 195.535 197.353 198.156C199.713 199.686 202.123 201.624 204.516 203.252C205.705 204.066 206.47 205.531 208 206.052V205.726C207.251 204.749 207.023 203.333 206.291 202.242C205.2 201.152 204.109 200.175 203.035 199.1C199.838 194.888 196.024 191.183 191.72 188.111C188.236 185.734 180.617 182.413 179.184 178.425L178.973 178.197C181.35 177.985 184.182 177.122 186.462 176.471C190.157 175.494 193.543 175.706 197.369 174.745C199.095 174.306 200.837 173.769 202.579 173.215V172.238C200.625 170.285 199.16 167.631 197.141 165.808C191.507 160.882 185.497 156.403 179.168 152.409C175.749 150.228 171.419 148.828 167.821 146.972C166.519 146.321 164.337 145.995 163.588 144.904C161.635 142.527 160.495 139.369 159.111 136.536C155.914 130.335 152.944 124.02 150.206 117.603C148.252 113.337 147.064 109.088 144.671 105.181C133.438 86.6708 121.277 75.4539 102.571 64.4812C98.5497 62.202 93.7308 61.2252 88.6352 60.0204C85.9164 59.8902 83.1977 59.6948 80.4952 59.5809C78.7044 58.8157 76.9787 56.7482 75.4484 55.7551C69.262 51.8479 53.2425 43.3823 48.6841 54.5829C45.7537 61.6484 53.0309 68.6163 55.5543 72.1979C57.4265 74.6887 59.7871 77.5377 61.0895 80.3378C61.8546 82.2263 62.0663 84.1636 62.8315 86.1335C64.5571 90.9198 66.2014 96.2597 68.4806 100.737C69.669 103.016 70.9714 105.409 72.5018 107.46C73.3809 108.649 74.8786 109.202 75.2205 111.156C73.6902 113.37 73.5925 116.593 72.7134 119.296C68.8062 131.62 70.3365 146.858 75.8717 155.926C77.6137 158.628 81.7651 164.619 87.3165 162.324C92.2005 160.37 91.126 154.184 92.5261 148.73C92.8517 147.428 92.6401 146.565 93.3076 145.686V145.93C94.8379 148.991 96.3682 151.905 97.7683 154.965C101.122 160.305 106.983 165.84 111.883 169.536C114.488 171.489 116.555 174.876 119.811 176.08V175.755H119.567C118.867 174.811 117.939 174.355 117.06 173.59C114.996 171.569 113.091 169.392 111.362 167.078C106.775 160.81 102.708 154.178 99.2009 147.249C97.4101 143.83 95.9124 140.15 94.4797 136.781C93.8285 135.478 93.8285 133.525 92.7378 132.873C91.1098 135.25 88.7166 137.318 87.5282 140.248C85.4606 144.937 85.249 150.7 84.4675 156.691C84.028 156.805 84.2396 156.691 84.028 156.919C80.5441 156.072 79.3556 152.458 78.0532 149.43C74.7972 141.697 74.26 129.275 77.0764 120.37C77.8416 118.091 81.0976 110.895 79.7952 108.714C79.1114 106.646 76.9625 105.458 75.774 103.781C74.2453 101.599 72.9364 99.27 71.8668 96.8295C69.262 90.7408 67.9596 84.0008 65.1269 77.9121C63.8245 75.0957 61.5453 72.149 59.6894 69.5605C57.6219 66.6301 55.3427 64.5625 53.6984 61.0949C53.1611 59.9065 52.396 57.9366 53.2588 56.6342C53.4867 55.7551 53.9426 55.4132 54.7891 55.169C56.2218 53.9968 60.2429 55.5272 61.6593 56.1784C65.6804 57.8064 69.0667 59.3367 72.4366 61.6159C73.967 62.6904 75.6112 64.7579 77.5648 65.2952H79.844C83.3279 66.0603 87.2514 65.5231 90.5074 66.4836C96.2868 68.3395 101.496 71.042 106.169 73.9724C120.566 83.1692 132.276 96.0082 140.112 111.188C141.415 113.696 141.985 115.991 143.173 118.596C145.452 123.968 148.269 129.389 150.581 134.583C152.86 139.711 155.058 144.937 158.33 149.186C159.958 151.465 166.502 152.654 169.433 153.842C171.598 154.819 174.968 155.714 176.922 156.903C180.666 159.182 184.313 161.787 187.829 164.294C189.62 165.531 195.041 168.25 195.367 170.448Z" fill="#F4F2ED"/>
</svg>
            </g>
    </svg>