<svg xmlns="http://www.w3.org/2000/svg" xmlns:xlink="http://www.w3.org/1999/xlink" width="48" height="48"
  viewBox="0 0 256 256" fill="none" version="1.1">

  <g transform="translate(0, 0)">
    <svg xmlns="http://www.w3.org/2000/svg" width="256" height="256" title="Redux" viewBox="0 0 256 256" fill="none">
      <rect width="256" height="256" rx="40" fill="#764ABC" />
      <path
        d="M158.863 158.079C164.768 157.468 169.247 152.378 169.043 146.27C168.84 140.162 163.75 135.275 157.641 135.275H157.234C150.922 135.479 146.036 140.773 146.239 147.084C146.443 150.138 147.665 152.785 149.497 154.618C142.575 168.259 131.987 178.236 116.106 186.584C105.315 192.285 94.1162 194.321 82.9178 192.896C73.7555 191.674 66.6293 187.602 62.1499 180.883C55.6345 170.906 55.0237 160.115 60.521 149.324C64.3896 141.587 70.4978 135.886 74.3663 133.035C73.5519 130.389 72.3302 125.909 71.7194 122.652C42.1964 144.03 45.2505 172.942 54.2092 186.584C60.9283 196.764 74.5699 203.076 89.6368 203.076C93.7089 203.076 97.7811 202.669 101.853 201.651C127.915 196.561 147.665 181.087 158.863 158.079Z"
        fill="white" />
      <path
        d="M194.698 132.832C179.224 114.711 156.42 104.734 130.358 104.734H127.1C125.268 101.069 121.399 98.6259 117.124 98.6259H116.717C110.405 98.8296 105.518 104.123 105.722 110.435C105.925 116.543 111.016 121.43 117.124 121.43H117.531C122.01 121.226 125.879 118.376 127.508 114.507H131.173C146.647 114.507 161.306 118.987 174.541 127.742C184.721 134.461 192.051 143.216 196.123 153.803C199.584 162.355 199.381 170.703 195.716 177.829C190.015 188.62 180.445 194.525 167.822 194.525C159.678 194.525 151.94 192.081 147.868 190.249C145.629 192.285 141.557 195.543 138.706 197.579C147.461 201.651 156.42 203.891 164.971 203.891C184.518 203.891 198.974 193.099 204.471 182.308C210.376 170.499 209.968 150.138 194.698 132.832Z"
        fill="white" />
      <path
        d="M91.2657 161.54C91.4693 167.649 96.5594 172.535 102.668 172.535H103.075C109.387 172.332 114.273 167.038 114.07 160.726C113.866 154.618 108.776 149.731 102.668 149.731H102.26C101.853 149.731 101.242 149.731 100.835 149.935C92.4873 136.09 89.026 121.023 90.2476 104.734C91.0621 92.5177 95.1342 81.9302 102.26 73.1751C108.165 65.6417 119.567 61.9767 127.304 61.7731C148.886 61.3659 158.049 88.242 158.659 99.0332C161.306 99.644 165.786 101.069 168.84 102.087C166.397 69.103 146.036 52 126.49 52C108.165 52 91.2657 65.2344 84.5466 84.7807C75.1807 110.842 81.2889 135.886 92.6909 155.636C91.6729 157.061 91.0621 159.301 91.2657 161.54Z"
        fill="white" />
    </svg>
  </g>
</svg>