<svg width="32" height="32" viewBox="0 0 256 256" 
        fill="none" xmlns="http://www.w3.org/2000/svg" xmlns:xlink="http://www.w3.org/1999/xlink" version="1.1">
        <defs>
            
        </defs>
        
            <g transform="translate(0, 0)">
                <svg width="256" height="256" title="Sass" viewBox="0 0 256 256" fill="none" xmlns="http://www.w3.org/2000/svg">
<rect width="256" height="256" rx="40" fill="#CC6699"/>
<path d="M129.483 143.86C126.723 145.129 123.699 146.782 117.644 150.104C115.348 151.396 112.949 152.687 110.717 153.904C110.562 153.749 110.401 153.554 110.246 153.393C98.2687 140.595 76.1158 131.556 77.057 114.367C77.4071 108.106 79.5593 91.6692 119.601 71.7087C152.555 55.4671 178.776 59.9665 183.305 69.9468C189.813 84.174 169.25 110.648 135.217 114.488C131.45 115.252 127.56 115.159 123.834 114.218C120.108 113.276 116.641 111.509 113.69 109.047C111.887 107.09 111.618 106.975 110.952 107.366C109.856 107.939 110.562 109.713 110.952 110.729C112.25 113.079 114.006 115.145 116.117 116.805C118.227 118.465 120.649 119.685 123.239 120.393C136.632 123.288 150.596 121.905 163.16 116.439C183.787 108.456 199.89 86.263 195.173 67.6569C190.438 48.7926 159.126 42.5714 129.501 53.0969C110.948 59.349 93.8067 69.191 79.0542 82.062C62.7323 97.3279 60.1497 110.597 61.2057 116.152C65.005 135.877 92.1967 148.716 103.101 158.225C102.527 158.541 102.045 158.799 101.615 159.046C96.1739 161.749 75.4329 172.59 70.262 184.057C64.3909 197.05 71.2032 206.365 75.7026 207.616C82.4833 209.24 89.6019 208.706 96.0644 206.088C102.527 203.471 108.011 198.901 111.75 193.015C114.925 188.135 116.875 182.561 117.433 176.765C117.992 170.97 117.143 165.126 114.958 159.729C116.247 158.701 117.622 157.785 119.067 156.991C121.845 155.35 124.49 153.732 126.838 152.48C134.875 148.716 143.645 146.778 152.52 146.804C171.149 148.997 174.828 160.618 174.122 165.514C173.792 167.251 173.093 168.897 172.074 170.341C171.054 171.785 169.737 172.995 168.211 173.887C166.919 174.708 166.489 174.983 166.604 175.569C166.759 176.43 167.384 176.389 168.48 176.234C171.279 175.35 173.745 173.639 175.554 171.328C177.363 169.016 178.43 166.211 178.616 163.281C179.19 151.803 168.245 139.212 148.87 139.326C143.069 139.336 137.325 140.481 131.963 142.695C131.102 143.051 130.266 143.434 129.455 143.843L129.483 143.86ZM101.792 188.849C95.6057 195.581 86.9971 198.123 83.2782 195.971C79.2609 193.675 80.8506 183.718 88.4434 176.596C92.9403 172.544 97.8008 168.915 102.963 165.755C103.864 165.181 105.196 164.423 106.797 163.459C107.072 163.304 107.227 163.224 107.227 163.224L108.169 162.65C109.523 167.19 109.646 172.009 108.526 176.612C107.405 181.216 105.082 185.439 101.792 188.849Z" fill="white"/>
</svg>
            </g>
    </svg>