<svg width="32" height="32" viewBox="0 0 256 256" 
        fill="none" xmlns="http://www.w3.org/2000/svg" xmlns:xlink="http://www.w3.org/1999/xlink" version="1.1">
        <defs>
            
        </defs>
        
            <g transform="translate(0, 0)">
                <svg width="256" height="256" title="SQL" viewBox="0 0 256 256" fill="none" xmlns="http://www.w3.org/2000/svg" id="sql">
<style>
#sql {
    rect {fill: #15191C}

    @media (prefers-color-scheme: light) {
        rect {fill: #F4F2ED}
    }
}
</style>
<rect width="256" height="256" rx="40" fill="#15191C"/>
<path d="M118.586 211.893C102.97 210.766 87.536 206.831 78.0703 201.564C72.6786 198.564 68.5709 194.876 66.959 191.59L66 189.635V128.303V66.971L66.7589 65.4285C70.1502 58.5362 80.9733 52.3228 96.0818 48.5946C101.21 47.329 108.614 46.0687 114.655 45.4331C120.822 44.784 137.171 44.8827 143.323 45.6073C159.675 47.5304 173.59 51.8358 182.165 57.6256C185.472 59.8584 188.865 63.4311 190.014 65.8903L191 67.9987L190.916 129.145L190.831 190.292L190.04 191.901C189.605 192.785 188.291 194.526 187.119 195.769C179.989 203.335 164.695 208.933 144.634 211.317C140.545 211.804 122.781 212.196 118.586 211.893ZM147.364 159.34C147.304 159.183 144.97 157.101 142.176 154.713C139.383 152.326 136.978 150.26 136.831 150.122C136.683 149.985 137.2 149.5 137.977 149.043C138.755 148.587 140.245 147.317 141.289 146.222C144.341 143.018 145.78 139.061 145.78 133.878C145.78 128.776 144.228 124.659 141.117 121.516C137.982 118.349 134.383 116.987 129.142 116.987C121.062 116.987 114.857 121.707 112.877 129.358C112.195 131.989 112.199 137.307 112.884 139.64C114.67 145.727 119.534 150.148 125.588 151.186C127.637 151.537 127.914 151.689 129.311 153.217C130.141 154.126 131.844 155.939 133.096 157.247L135.372 159.625H141.423C144.751 159.625 147.424 159.496 147.364 159.34ZM126.614 142.381C125.158 141.621 124.607 141.031 123.776 139.34C123.135 138.035 123.025 137.292 123.018 134.206C123.011 131.071 123.11 130.393 123.78 129.032C124.876 126.804 126.386 125.749 128.723 125.58C131.975 125.344 133.852 126.942 134.836 130.781C136.042 135.489 134.715 140.493 131.821 142.154C130.303 143.026 128.038 143.124 126.614 142.381ZM99.7952 151.119C106.139 149.915 109.74 146.222 109.74 140.92C109.74 136.217 107.415 133.477 100.99 130.605C97.3113 128.962 95.979 127.93 95.979 126.724C95.979 125.725 97.2434 124.63 98.7153 124.355C100.152 124.087 103.964 124.749 106.215 125.66L108.102 126.423V122.242V118.061L106.054 117.606C104.788 117.325 102.129 117.157 99.0916 117.165C94.7892 117.165 93.9467 117.27 92.3276 117.914C87.5982 119.793 85.3539 122.995 85.3898 127.811C85.4234 132.319 87.7994 135.132 93.7127 137.662C97.2017 139.154 98.6002 140.291 98.6002 141.634C98.6002 144.489 93.8489 144.84 88.8185 142.358C87.4408 141.678 86.2031 141.066 86.0679 140.998C85.9328 140.931 85.8223 142.884 85.8223 145.338C85.8223 149.781 85.827 149.803 86.6306 150.109C89.6568 151.261 96.3454 151.774 99.7952 151.119ZM172.319 146.997V143.226H166.586H160.852V130.271V117.316H155.773H150.695V134.042V150.769H161.507H172.319V146.997ZM136.934 80.9015C147.026 80.2008 154.591 78.8779 161.247 76.6499C167.879 74.4303 171.797 71.7445 172.673 68.8168C173.011 67.6886 172.986 67.2606 172.515 66.0236C170.399 60.4781 158.58 56.2174 140.52 54.4899C132.794 53.7508 118.745 53.9904 111.379 54.9864C100.139 56.5066 91.0177 59.3302 86.9619 62.545C78.7576 69.0484 87.4337 76.2013 107.61 79.568C116.359 81.0278 127.693 81.5433 136.934 80.9015Z" fill="#00BCF2"/>
</svg>
            </g>
    </svg>