<svg width="48" height="48" viewBox="0 0 256 256" 
        fill="none" xmlns="http://www.w3.org/2000/svg" xmlns:xlink="http://www.w3.org/1999/xlink" version="1.1">
        <defs>
            
        </defs>
        
            <g transform="translate(0, 0)">
                <svg width="256" height="256" title="Svelte" viewBox="0 0 256 256" fill="none" xmlns="http://www.w3.org/2000/svg">
<rect width="256" height="256" rx="40" fill="#FF3E00"/>
<path d="M114.814 201.257C107.767 203.088 100.327 202.713 93.4998 200.181C86.6726 197.649 80.7867 193.083 76.637 187.1C74.0885 183.535 72.2775 179.496 71.3103 175.221C70.3431 170.947 70.2392 166.522 71.0046 162.207C71.2655 160.789 71.6243 159.392 72.0782 158.024L72.9195 155.453L75.2189 157.135C80.5167 161.027 86.4398 163.986 92.7332 165.884L94.3997 166.389L94.2395 168.055C94.0394 170.416 94.6808 172.772 96.0502 174.705C97.2989 176.509 99.071 177.885 101.127 178.649C103.183 179.413 105.424 179.527 107.547 178.976C108.519 178.718 109.446 178.312 110.296 177.774L155.083 149.235C156.177 148.544 157.115 147.633 157.838 146.56C158.56 145.487 159.052 144.275 159.281 143.002C159.512 141.701 159.481 140.367 159.191 139.078C158.901 137.789 158.357 136.571 157.591 135.495C156.341 133.692 154.569 132.316 152.513 131.553C150.457 130.789 148.216 130.674 146.093 131.224C145.121 131.482 144.195 131.887 143.345 132.426L126.256 143.322C123.446 145.111 120.379 146.459 117.162 147.32C110.115 149.152 102.676 148.778 95.8488 146.248C89.0217 143.717 83.1353 139.153 78.9846 133.171C76.4359 129.604 74.6256 125.564 73.6597 121.288C72.6939 117.012 72.592 112.586 73.3601 108.27C74.1195 104.04 75.7531 100.016 78.1563 96.4538C80.5596 92.8917 83.6796 89.8703 87.3171 87.5826L132.096 59.0358C134.906 57.2467 137.972 55.8984 141.19 55.0378C148.238 53.2066 155.677 53.5823 162.504 56.114C169.332 58.6458 175.218 63.2116 179.367 69.195C181.916 72.7605 183.727 76.799 184.694 81.0737C185.661 85.3483 185.765 89.773 185 94.0884C184.738 95.5053 184.379 96.9027 183.926 98.2707L183.085 100.843L180.793 99.16C175.494 95.2639 169.568 92.3022 163.271 90.4029L161.605 89.8981L161.765 88.2396C161.965 85.8762 161.324 83.5179 159.954 81.5816C158.704 79.7798 156.932 78.4049 154.876 77.6426C152.82 76.8804 150.579 76.7675 148.457 77.3192C147.485 77.5774 146.558 77.9827 145.709 78.521L100.922 107.06C99.827 107.75 98.8883 108.661 98.1654 109.734C97.4426 110.807 96.9514 112.02 96.7232 113.293C96.4916 114.594 96.5218 115.928 96.8121 117.217C97.1024 118.506 97.6469 119.724 98.4137 120.8C99.6632 122.603 101.435 123.979 103.491 124.742C105.547 125.506 107.788 125.621 109.911 125.071C110.886 124.811 111.816 124.403 112.667 123.861L129.749 112.965C132.558 111.178 135.625 109.832 138.842 108.975C145.889 107.143 153.328 107.517 160.156 110.047C166.983 112.578 172.869 117.142 177.02 123.124C179.568 126.691 181.379 130.731 182.345 135.007C183.31 139.283 183.412 143.709 182.644 148.025C181.885 152.256 180.251 156.281 177.848 159.845C175.445 163.408 172.325 166.431 168.687 168.72L123.908 197.259C121.099 199.048 118.032 200.397 114.814 201.257ZM197.803 57.4414C179.952 31.883 144.683 24.3116 119.189 40.56L74.4017 69.0989C68.3534 72.9054 63.1658 77.932 59.1705 83.8573C55.1753 89.7826 52.4602 96.4763 51.1988 103.511C49.0618 115.362 50.9396 127.587 56.5348 138.251C52.6998 144.064 50.0832 150.594 48.8433 157.448C47.569 164.623 47.7404 171.982 49.3473 179.09C50.9543 186.199 53.9644 192.916 58.2014 198.846C76.0602 224.404 111.321 231.975 136.815 215.735L181.603 187.196C187.652 183.39 192.84 178.364 196.835 172.439C200.83 166.513 203.545 159.819 204.806 152.785C206.943 140.934 205.068 128.709 199.478 118.044C203.307 112.23 205.918 105.699 207.153 98.8475C208.43 91.6709 208.261 84.3114 206.656 77.201C205.05 70.0907 202.04 63.3727 197.803 57.4414Z" fill="#F4F2ED"/>
</svg>
            </g>
    </svg>