<svg xmlns="http://www.w3.org/2000/svg" xmlns:xlink="http://www.w3.org/1999/xlink" width="48" height="48"
  viewBox="0 0 256 256" fill="none" version="1.1">
  <defs>

  </defs>

  <g transform="translate(0, 0)">
    <svg xmlns="http://www.w3.org/2000/svg" width="256" height="256" title="Tailwind CSS" viewBox="0 0 256 256"
      fill="none" id="tailwindcss">
      <style>
        #tailwindcss {
          rect {
            fill: #15191C
          }

          @media (prefers-color-scheme: light) {
            rect {
              fill: #F4F2ED
            }
          }
        }
      </style>
      <rect width="256" height="256" rx="40" fill="#15191C" />
      <path
        d="M128.5 75C105.167 75 90.5833 86.6667 84.75 110C93.5 98.3333 103.708 93.9583 115.375 96.875C122.032 98.5375 126.786 103.365 132.058 108.717C140.641 117.423 150.565 127.5 172.25 127.5C195.583 127.5 210.167 115.833 216 92.5C207.25 104.167 197.042 108.542 185.375 105.625C178.718 103.962 173.964 99.1354 168.692 93.7833C160.117 85.0771 150.193 75 128.5 75ZM84.75 127.5C61.4167 127.5 46.8333 139.167 41 162.5C49.75 150.833 59.9583 146.458 71.625 149.375C78.2823 151.038 83.0365 155.865 88.3083 161.217C96.8906 169.923 106.815 180 128.5 180C151.833 180 166.417 168.333 172.25 145C163.5 156.667 153.292 161.042 141.625 158.125C134.968 156.463 130.214 151.635 124.942 146.283C116.367 137.577 106.443 127.5 84.75 127.5Z"
        fill="#06B6D4" />
    </svg>
  </g>
</svg>