<svg xmlns="http://www.w3.org/2000/svg" xmlns:xlink="http://www.w3.org/1999/xlink" width="48" height="48"
  viewBox="0 0 256 256" fill="none" version="1.1">

  <g transform="translate(0, 0)">
    <svg xmlns="http://www.w3.org/2000/svg" width="256" height="256" title="TypeScript" viewBox="0 0 256 256"
      fill="none">
      <rect width="256" height="256" rx="40" fill="#3178C6" />
      <path
        d="m248.83 257.92m-96.04-110.55v-19.37h-84.07v19.37h30.02v86.26h23.89v-86.26zm9.52 83.98q5.78 2.95 13.67 4.42 7.9 1.48 16.64 1.48 8.52 0 16.19-1.62 7.67-1.63 13.45-5.35 5.78-3.72 9.15-9.72 3.37-6 3.37-14.84 0-6.41-1.93-11.24-1.92-4.82-5.56-8.58-3.63-3.76-8.7-6.74-5.08-2.98-11.45-5.63-4.67-1.92-8.37-3.72-3.71-1.81-6.3-3.69-2.59-1.88-4-3.98-1.41-2.1-1.41-4.75 0-2.43 1.26-4.38 1.26-1.95 3.56-3.35 2.29-1.4 5.63-2.18 3.33-0.77 7.41-0.77 2.96 0 6.26 0.44 3.3 0.45 6.63 1.37 3.33 0.92 6.48 2.32 3.15 1.4 5.82 3.24v-22.03q-5.41-2.06-11.82-3.06-6.41-0.99-14.71-0.99-8.44 0-16 1.81-7.56 1.8-13.3 5.63-5.74 3.83-9.08 9.76-3.33 5.93-3.33 14.18 0 10.54 6.11 17.98 6.11 7.44 18.56 12.59 4.89 1.99 9.12 3.91 4.22 1.91 7.29 3.97 3.08 2.07 4.86 4.5 1.78 2.43 1.78 5.52 0 2.29-1.12 4.24-1.11 1.95-3.37 3.39-2.26 1.43-5.63 2.24-3.37 0.81-7.89 0.81-7.7 0-15.26-2.68-7.56-2.69-14.01-8.07z"
        fill="#FFFFFF" />
    </svg>
  </g>
</svg>