<svg width="32" height="32" viewBox="0 0 256 256" 
        fill="none" xmlns="http://www.w3.org/2000/svg" xmlns:xlink="http://www.w3.org/1999/xlink" version="1.1">
        <defs>
            <linearGradient id="icon_0_linearGradient1" x1="50.3415" y1="61.878" x2="139.707" y2="183.244" gradientUnits="userSpaceOnUse">
<stop stop-color="#41D1FF"/>
<stop offset="1" stop-color="#BD34FE"/>
</linearGradient>
<linearGradient id="icon_0_linearGradient2" x1="123.961" y1="52.4412" x2="140.127" y2="163.337" gradientUnits="userSpaceOnUse">
<stop stop-color="#FFEA83"/>
<stop offset="0.0833333" stop-color="#FFDD35"/>
<stop offset="1" stop-color="#FFA800"/>
</linearGradient>
        </defs>
        
            <g transform="translate(0, 0)">
                <svg width="256" height="256" title="Vite" viewBox="0 0 256 256" fill="none" xmlns="http://www.w3.org/2000/svg" id="vite">
<style>
#vite {
    rect {fill: #15191C}

    @media (prefers-color-scheme: light) {
        rect {fill: #F4F2ED}
    }
}
</style>
<rect width="256" height="256" rx="40" fill="#15191C"/>
<path d="M203.957 72.2291L132.153 200.627C130.671 203.278 126.862 203.294 125.357 200.656L52.1294 72.2415C50.4901 69.3667 52.9484 65.8845 56.2061 66.4668L128.087 79.3151C128.546 79.397 129.015 79.3963 129.474 79.3127L199.851 66.4852C203.098 65.8934 205.568 69.3486 203.957 72.2291Z" fill="url(#icon_0_linearGradient1)"/>
<path d="M162.328 49.6144L109.191 60.0264C108.317 60.1975 107.671 60.9377 107.618 61.8259L104.349 117.031C104.272 118.332 105.467 119.341 106.736 119.048L121.53 115.634C122.914 115.315 124.165 116.534 123.88 117.926L119.485 139.449C119.189 140.897 120.549 142.136 121.964 141.706L131.101 138.93C132.518 138.5 133.879 139.742 133.579 141.192L126.594 175C126.157 177.115 128.97 178.268 130.143 176.455L130.927 175.244L174.226 88.833C174.951 87.3861 173.701 85.7364 172.112 86.043L156.884 88.982C155.452 89.2579 154.235 87.9253 154.639 86.5252L164.578 52.07C164.982 50.6676 163.76 49.3337 162.328 49.6144Z" fill="url(#icon_0_linearGradient2)"/>


</svg>
            </g>
    </svg>